#!OML:ASF F:\VICON\USERDATA\INSTALL\rory3\rory3.ASF
:FULLY-SPECIFIED
:DEGREES
137
root -1.99461 15.2796 6.18241 280.663 23.6317 -211.254
lowerback 22.1939 0.348454 26.2448
upperback -4.57115 8.05733 17.0353
thorax -16.4363 1.30344 3.23155
lowerneck -21.2181 -4.49059 -13.0216
upperneck -7.46521 -2.32591 6.41265
head 1.22151 -0.328131 3.92119
rclavicle -4.53229e-014 -1.18078e-013
rhumerus 71.8986 -6.12439 -28.6864
rradius 49.5659
rwrist 20.0475
rhand -36.6917 108.34
rfingers 7.12502
rthumb -9.77722 138.093
lclavicle -4.53229e-014 -1.18078e-013
lhumerus 73.8037 37.1648 17.7377
lradius 29.1333
lwrist -7.96606
lhand -44.2262 -62.5871
lfingers 7.12502
lthumb -17.039 -33.3143
rfemur -96.4538 -23.6492 -19.2199
rtibia 42.3352
rfoot -20.8433 -27.5921
rtoes -13.9237
lfemur -9.35262 -0.385941 -20.8695
ltibia 56.3885
lfoot 0.099392 1.59564
ltoes -29.3316
138
root -1.91483 15.3891 5.92313 282.362 25.4207 -211.864
lowerback 21.081 0.846005 26.1579
upperback -4.79013 8.3051 17.099
thorax -16.0946 1.45235 3.29054
lowerneck -20.5945 -4.32914 -14.1237
upperneck -8.23922 -1.90798 5.72422
head 0.847603 -0.0749689 3.91461
rclavicle 4.37326e-014 -7.27552e-014
rhumerus 72.8559 -6.80638 -26.571
rradius 49.3152
rwrist 19.7064
rhand -33.8039 103.789
rfingers 7.12502
rthumb -6.99025 133.654
lclavicle 4.37326e-014 -7.27552e-014
lhumerus 72.4597 37.4766 17.3265
lradius 29.066
lwrist -7.57842
lhand -44.3982 -57.9421
lfingers 7.12502
lthumb -17.2045 -28.6838
rfemur -93.7781 -24.7418 -22.3319
rtibia 38.3321
rfoot -19.1253 -29.1629
rtoes -15.9476
lfemur -9.4406 0.0663988 -20.3447
ltibia 59.9278
lfoot 0.0927164 1.61131
ltoes -27.5654
139
root -1.83121 15.5 5.67004 284.104 27.5447 -212.495
lowerback 19.5449 1.49287 25.6322
upperback -4.8347 8.42081 17.2156
thorax -15.3737 1.6335 3.64149
lowerneck -20.3817 -4.30422 -14.9366
upperneck -8.71717 -1.71464 5.57151
head 0.650826 0.0647686 4.01133
rclavicle 1.83478e-013 3.97569e-015
rhumerus 74.0493 -7.81809 -24.1311
rradius 48.7461
rwrist 19.0418
rhand -33.574 102.618
rfingers 7.12502
rthumb -6.76837 132.49
lclavicle 1.83478e-013 3.97569e-015
lhumerus 64.0455 38.5987 10.1877
lradius 31.7305
lwrist -2.74326
lhand -45.5233 -54.4242
lfingers 7.12502
lthumb -18.2871 -25.2638
rfemur -90.7347 -26.0179 -25.8067
rtibia 33.9281
rfoot -16.4792 -30.792
rtoes -17.0159
lfemur -9.64904 0.368701 -20.0375
ltibia 63.5067
lfoot 0.0748867 1.81908
ltoes -25.8582
140
root -1.74383 15.6107 5.43027 286.015 30.1234 -212.985
lowerback 17.9153 2.065 24.6178
upperback -4.94995 8.39767 16.966
thorax -14.6987 1.7884 3.83648
lowerneck -20.8486 -4.56204 -15.3497
upperneck -8.33962 -1.90879 5.90846
head 0.855052 -0.0329311 4.16558
rclavicle -1.80298e-013 6.83819e-014
rhumerus 74.8043 -8.91003 -22.0819
rradius 48.5495
rwrist 18.2197
rhand -33.9001 103.065
rfingers 7.12502
rthumb -7.08313 132.927
lclavicle -1.80298e-013 6.83819e-014
lhumerus 64.7901 38.865 12.2553
lradius 29.7288
lwrist -7.14304
lhand -47.0143 -58.9099
lfingers 7.12502
lthumb -19.7211 -29.8903
rfemur -87.2899 -27.4648 -29.9548
rtibia 29.0888
rfoot -13.199 -32.3292
rtoes -15.6948
lfemur -10.0246 0.74993 -20.0711
ltibia 67.0847
lfoot 0.104095 1.99787
ltoes -26.132
141
root -1.6567 15.7281 5.18561 287.896 32.4341 -213.327
lowerback 16.2676 2.68974 23.8886
upperback -4.92723 8.44645 16.7314
thorax -13.7776 1.95774 3.92952
lowerneck -21.0598 -4.30711 -15.3139
upperneck -8.60815 -1.52483 5.37947
head 0.749935 0.170607 4.01942
rclavicle -4.41302e-014 -1.13307e-013
rhumerus 75.2292 -10.2948 -19.7553
rradius 48.7966
rwrist 17.2728
rhand -33.9129 103.7
rfingers 7.12502
rthumb -7.09547 133.561
lclavicle -4.41302e-014 -1.13307e-013
lhumerus 65.2523 39.1715 13.8661
lradius 28.47
lwrist -9.09906
lhand -45.7077 -55.9581
lfingers 7.12502
lthumb -18.4646 -26.8144
rfemur -83.3099 -28.6918 -34.101
rtibia 23.6745
rfoot -10.2962 -34.0689
rtoes -13.3995
lfemur -10.3739 1.23522 -19.7281
ltibia 70.6803
lfoot 0.319129 2.01677
ltoes -28.5156
142
root -1.56495 15.8528 4.93079 289.524 34.3003 -213.745
lowerback 14.9619 3.22792 23.8096
upperback -4.90983 8.62153 16.5366
thorax -12.9537 2.10773 3.76478
lowerneck -21.4302 -4.30938 -15.8161
upperneck -8.60759 -1.33726 5.35871
head 0.778511 0.288544 4.1035
rclavicle -2.49972e-014 -5.3324e-014
rhumerus 75.7292 -11.7124 -17.5045
rradius 48.4171
rwrist 16.7811
rhand -35.2076 104.089
rfingers 7.12502
rthumb -8.34512 133.904
lclavicle -2.49972e-014 -5.3324e-014
lhumerus 63.538 39.1891 13.2257
lradius 28.4386
lwrist -6.40859
lhand -47.4726 -66.8426
lfingers 7.12502
lthumb -20.1616 -37.8689
rfemur -78.4109 -29.5634 -38.1566
rtibia 17.2729
rfoot -7.68568 -36.4821
rtoes -10.902
lfemur -10.625 1.72209 -18.7152
ltibia 74.2591
lfoot 0.353914 2.32945
ltoes -29.7912
